<svg viewBox="0 0 81 63" xmlns="http://www.w3.org/2000/svg">
<path d="M68.6869 21.2016C73.1318 20.4886 83.0112 17.9364 80.6369 9.49314C80.2319 9.1981 72.0965 10.1226 69.1223 10.4717C69.1248 10.1078 69.1451 9.75377 69.1451 9.38496V7.75237L67.7529 6.90902C58.0152 1.00562 48.794 0.344222 40.289 0.00737623V0C40.2713 0.00245873 40.2536 0.0049171 40.2358 0.0049171C40.2181 0.0049171 40.2004 0.00245873 40.1827 0V0.00983478C31.6803 0.34668 22.4564 1.00562 12.7188 6.91148L11.3266 7.75482V9.38742C11.3266 9.76606 11.3468 10.1275 11.3519 10.5012C8.04865 10.1127 0.7435 9.30136 0.363815 9.5792C-2.00542 17.9954 7.80312 20.5574 12.2682 21.2827V21.2852C8.73208 20.9828 2.47233 20.491 2.10784 20.7394C-0.856241 30.1415 11.8708 32.0102 15.0399 32.3273C15.0425 32.3323 15.045 32.3372 15.0475 32.347C11.4557 32.0446 5.60854 31.5897 5.26176 31.8331C2.30021 41.2255 16.8852 43.4777 20.5327 43.8907C28.2985 56.445 40.2333 62.7787 40.2333 62.7787C40.2333 62.7787 52.1909 56.4401 59.9542 43.8588C62.3867 43.6252 78.8701 41.6779 75.7339 31.7471C75.3643 31.4914 68.9451 32.0028 65.4368 32.3052C65.4394 32.2978 65.4394 32.2929 65.4419 32.288C67.2872 32.1479 82.0569 30.7046 78.8904 20.6558C78.5208 20.4025 72.213 20.9016 68.6869 21.2016ZM40.289 56.0344C40.2738 56.0491 17.7483 39.5658 17.1054 11.0249C25.4003 6.20829 33.161 6.10502 40.2358 5.78784C47.3107 6.10502 55.0714 6.20829 63.3713 11.0249C62.7208 39.5658 40.289 56.0344 40.289 56.0344Z" fill="#2888E0"/>
</svg>
